<svg xmlns="http://www.w3.org/2000/svg" xmlns:svg="http://www.w3.org/2000/svg" id="svg2" width="125" height="75" version="1.0"><metadata id="metadata3038"/><rect id="rect3015" width="123.524" height="73.524" x=".738" y=".738" style="fill:#ff0;fill-opacity:1;fill-rule:nonzero;stroke:#000;stroke-width:1.47636628;stroke-linecap:square;stroke-linejoin:miter;stroke-miterlimit:4;stroke-opacity:1;stroke-dasharray:none;stroke-dashoffset:0"/><g id="g3847" transform="matrix(1.2307898,0,0,1.2307898,-14.424362,-8.6546167)"><rect id="rect3687" width="3.666" height="9.544" x="-78.922" y="-22.121" transform="matrix(-0.89091996,-0.45416035,-0.40870649,0.91266588,0,0)" style="fill:none;stroke:#000;stroke-width:1.72821403;stroke-linejoin:round;stroke-miterlimit:4;stroke-opacity:1;stroke-dasharray:none;stroke-dashoffset:0"/><rect id="rect3685" width="3.666" height="9.544" x="34.893" y="34.515" transform="matrix(0.89091996,-0.45416035,0.40870649,0.91266588,0,0)" style="fill:none;stroke:#000;stroke-width:1.72821581;stroke-linejoin:round;stroke-miterlimit:4;stroke-opacity:1;stroke-dasharray:none;stroke-dashoffset:0"/><rect id="rect1919" width="37.611" height="40.772" x="43.694" y="19.869" style="fill:#ff0;fill-opacity:1;fill-rule:nonzero;stroke:#000;stroke-width:2.46731305;stroke-linejoin:round;stroke-miterlimit:4;stroke-opacity:1;stroke-dasharray:none;stroke-dashoffset:0"/><path id="path2794" d="m 60.841115,31.968428 a 6.4093275,6.355592 0 0 1 -12.818655,0 6.4093275,6.355592 0 1 1 12.818655,0 z" style="fill:none;stroke:#000;stroke-width:1.48038781;stroke-linejoin:round;stroke-miterlimit:4;stroke-opacity:1;stroke-dasharray:none;stroke-dashoffset:0"/><path id="path3669" d="m 77.429962,32.053174 a 6.4093275,6.355592 0 0 1 -12.818655,0 6.4093275,6.355592 0 1 1 12.818655,0 z" style="fill:none;stroke:#000;stroke-width:1.48038781;stroke-linejoin:round;stroke-miterlimit:4;stroke-opacity:1;stroke-dasharray:none;stroke-dashoffset:0"/><rect id="rect3679" width="27.334" height="11.947" x="49.285" y="44.016" ry="0" style="fill:none;stroke:#000;stroke-width:1.91710222;stroke-linejoin:round;stroke-miterlimit:4;stroke-opacity:1;stroke-dasharray:none;stroke-dashoffset:0"/><path id="path3681" d="m 55.86446,31.646626 a 1.2818655,1.3676591 0 0 1 -2.563731,0 1.2818655,1.3676591 0 1 1 2.563731,0 z" style="fill:#fff;fill-opacity:1;fill-rule:nonzero;stroke:#000;stroke-width:1.48038781;stroke-linejoin:round;stroke-miterlimit:4;stroke-opacity:1;stroke-dasharray:none;stroke-dashoffset:0"/><path id="path3683" d="m 72.754923,31.646626 a 1.2818655,1.3676591 0 0 1 -2.563731,0 1.2818655,1.3676591 0 1 1 2.563731,0 z" style="fill:#fff;fill-opacity:1;fill-rule:nonzero;stroke:#000;stroke-width:1.48038781;stroke-linejoin:round;stroke-miterlimit:4;stroke-opacity:1;stroke-dasharray:none;stroke-dashoffset:0"/><path id="path3689" d="m 49.228922,49.989349 26.843769,0" style="fill:#000;fill-opacity:1;stroke:#000;stroke-width:1.91710222;stroke-linecap:butt;stroke-linejoin:miter;stroke-miterlimit:4;stroke-opacity:1;stroke-dasharray:none"/><g id="g3810" transform="translate(35.678633,9.999999)" style="stroke:#000;stroke-opacity:1"><path id="path3691" d="m 29.963193,33.955559 0,11.263071" style="fill:#000;fill-opacity:1;stroke:#000;stroke-width:1.91710222;stroke-linecap:butt;stroke-linejoin:miter;stroke-miterlimit:4;stroke-opacity:1;stroke-dasharray:none"/><path id="path3693" d="m 24.584384,33.955559 0,11.263071" style="fill:#000;fill-opacity:1;stroke:#000;stroke-width:1.91710222;stroke-linecap:butt;stroke-linejoin:miter;stroke-miterlimit:4;stroke-opacity:1;stroke-dasharray:none"/><path id="path3695" d="m 35.342002,33.955559 0,11.263071" style="fill:#000;fill-opacity:1;stroke:#000;stroke-width:1.91710222;stroke-linecap:butt;stroke-linejoin:miter;stroke-miterlimit:4;stroke-opacity:1;stroke-dasharray:none"/><path id="path3697" d="m 19.205576,33.955559 0,11.263071" style="fill:#000;fill-opacity:1;stroke:#000;stroke-width:1.91710222;stroke-linecap:butt;stroke-linejoin:miter;stroke-miterlimit:4;stroke-opacity:1;stroke-dasharray:none"/></g></g></svg>