<svg xmlns="http://www.w3.org/2000/svg" xmlns:svg="http://www.w3.org/2000/svg" id="Layer_1" width="55" height="55" version="1.1" viewBox="0 0 55 55" xml:space="preserve"><g id="activity-journal" style="display:block"><path id="path4" d="M 45.866,44.669 C 45.866,47.18 44.338,49 41.534,49 H 12.077 V 6 h 29.458 c 2.15,0 4.332,2.154 4.332,4.33 l -10e-4,34.339 0,0 z" style="fill:#fff;stroke:#666;stroke-width:3.5;stroke-linecap:round;stroke-linejoin:round"/><line id="line6" x1="21.341" x2="21.341" y1="6.121" y2="48.881" fill="none" stroke="#666" stroke-linecap="round" stroke-linejoin="round" stroke-width="3.5" style="fill:none;stroke:#666;stroke-width:3.5;stroke-linecap:round;stroke-linejoin:round"/><path id="path8" d="m 7.384,14.464 c 0,0 2.084,0.695 4.17,0.695 2.086,0 4.173,-0.695 4.173,-0.695" style="fill:none;stroke:#666;stroke-width:3.5;stroke-linecap:round;stroke-linejoin:round"/><path id="path10" d="m 7.384,28.021 c 0,0 1.912,0.695 4.345,0.695 2.433,0 3.999,-0.695 3.999,-0.695" style="fill:none;stroke:#666;stroke-width:3.5;stroke-linecap:round;stroke-linejoin:round"/><path id="path12" d="m 7.384,41.232 c 0,0 1.736,0.695 4.518,0.695 2.781,0 3.825,-0.695 3.825,-0.695" style="fill:none;stroke:#666;stroke-width:3.5;stroke-linecap:round;stroke-linejoin:round"/></g><path id="path2898" d="m 43.819706,15.72449 -10.192,13.495 -2.088,2.717 -3.475,8.266 c -0.046,0.104 -0.018,0.223 0.069,0.295 0.089,0.072 0.211,0.084 0.307,0.02 l 7.826,-5.037 c 0.011,-0.008 0.011,-0.027 0.022,-0.043 0.065,-0.049 0.142,-0.092 0.196,-0.162 0.003,-0.002 0.034,-0.041 0.034,-0.049 l 1.831,-2.271 5.469,-7.054 8.011,-10.329 c 0.022,-0.023 0.149,-0.203 0.149,-0.203 0.096,-0.161 0.148,-0.345 0.148,-0.556 0,-0.061 0,-0.118 -0.012,-0.176 -0.087,-0.763 -0.715,-1.682 -1.639,-2.413 -0.923,-0.728 -1.969,-1.123 -2.728,-1.034 -0.326,0.042 -0.789,0.375 -0.789,0.375 l -3.139,4.159 z" style="fill:#fff;stroke:#010101;stroke-width:3.5"/></svg>