<svg xmlns="http://www.w3.org/2000/svg" xmlns:svg="http://www.w3.org/2000/svg" id="svg2" width="55" height="55" version="1.1"><metadata id="metadata3026"/><g id="g6" transform="translate(-37.6,-12)" style="fill:none;stroke:#fff;stroke-width:3;stroke-miterlimit:4;stroke-opacity:1;stroke-dasharray:none"><path id="path8" d="m 33.4,62.5 10.1,10.1 c 0.8,0.8 1.2,1.8 1.2,2.9 0,2.3 -1.9,4.1 -4.1,4.1 -1.1,0 -2.2,-0.5 -2.9,-1.2 L 27.6,68.3 17.5,78.4 c -0.8,0.8 -1.8,1.2 -2.9,1.2 -2.3,0 -4.1,-1.9 -4.1,-4.1 0,-1.1 0.5,-2.2 1.2,-2.9 L 21.8,62.5 11.7,52.4 c -0.7,-0.7 -1.2,-1.8 -1.2,-2.9 0,-2.3 1.9,-4.1 4.1,-4.1 1.1,0 2.2,0.5 2.9,1.2 L 27.6,56.7 37.7,46.6 c 0.8,-0.7 1.8,-1.2 2.9,-1.2 2.3,0 4.1,1.9 4.1,4.1 0,1.1 -0.5,2.2 -1.2,2.9 L 33.4,62.5 z" transform="translate(35.5,-25)" style="fill:none;stroke:#fff;stroke-width:3;stroke-miterlimit:4;stroke-opacity:1;stroke-dasharray:none"/></g><path id="rect3894" d="m 42.645186,31.124796 c -1.10877,0 -2.018763,0.909992 -2.018763,2.018761 l 0,4.629689 -3.283849,-3.283849 c -0.784855,-0.783184 -2.043082,-0.78485 -2.826264,0 -0.783183,0.784854 -0.784823,2.069998 0,2.85318 l 3.310766,3.28385 -4.683521,0 c -1.10877,0 -2.018762,0.909991 -2.018762,2.018762 0,1.108769 0.909992,1.991843 2.018762,1.991843 l 4.656605,0 -3.28385,3.283849 c -0.783181,0.784854 -0.784823,2.069999 0,2.85318 0.784855,0.783182 2.07,0.757938 2.85318,-0.02692 l 3.256933,-3.283849 0,4.683524 c 0,1.10877 0.909993,1.991844 2.018763,1.991844 1.108769,0 1.991843,-0.883074 1.991843,-1.991844 l 0,-4.71044 3.337683,3.310765 c 0.784853,0.783182 2.043082,0.784855 2.826262,0 0.783182,-0.784853 0.784858,-2.043082 0,-2.826262 l -3.310765,-3.28385 4.656607,0 c 1.10877,0 1.991844,-0.883074 1.991844,-1.991843 0,-1.108771 -0.883074,-2.018763 -1.991844,-2.018763 l -4.683523,0 3.310765,-3.337683 c 0.783182,-0.784854 0.784857,-2.016165 0,-2.799347 -0.784854,-0.78318 -2.043082,-0.811775 -2.826263,-0.02691 l -3.310766,3.337682 0,-4.656604 c 0,-1.10877 -0.883074,-2.018763 -1.991843,-2.018763 z" style="fill:#fff;fill-opacity:1;stroke:#282828;stroke-width:1.72267997;stroke-linecap:round;stroke-linejoin:round;stroke-miterlimit:4;stroke-opacity:1;stroke-dasharray:none"/></svg>