<svg xmlns="http://www.w3.org/2000/svg" xmlns:svg="http://www.w3.org/2000/svg" id="Layer_1" width="55.125" height="55" version="1.1" viewBox="0 0 55.125 55" xml:space="preserve"><metadata id="metadata19"/><text id="text2837" x="27.572" y="28.453" xml:space="preserve" style="font-size:40px;font-style:normal;font-weight:400;fill:#fff;fill-opacity:1;stroke:none;font-family:Bitstream Vera Sans"><tspan id="tspan2839" x="27.572" y="28.453" style="font-size:36px;font-style:normal;font-variant:normal;font-weight:400;font-stretch:normal;fill:#fff;font-family:DejaVu Sans;-inkscape-font-specification:DejaVu Sans">5</tspan></text><g id="g3036" transform="translate(-0.2743801,0.51351)"><path id="path3806" d="M 9.5689397,38.952218 9.3902171,32.897964 M 25.663656,50.969805 3.6345541,51.23649 3.5243801,39.2454 l 5.851406,-6.358972 21.2578909,0 -0.110174,12.124478 z M 3.6345541,39.378743 l 21.4782339,0.266685 0.33052,10.924347 m -0.306426,-11.052011 5.531132,-6.638311" style="fill:none;stroke:#fff;stroke-width:2.5;stroke-linecap:butt;stroke-linejoin:miter;stroke-miterlimit:4;stroke-opacity:1;stroke-dasharray:none;stroke-dashoffset:0"/><g id="g4770" transform="matrix(0,-1,-1,0,47.3087,85.9835)"><g id="g4772" transform="translate(34.0803,-1006.42)"><polyline id="polyline4774" points="51.562 15.306 41.17 16.188 42.053 5.794" transform="matrix(-0.469241,0.469241,-0.469241,-0.469241,66.2906,1019.03)" style="fill:none;stroke:#fff;stroke-width:3.5;stroke-linecap:round;stroke-linejoin:round"/><path id="path4776" d="m 39.363241,1033.1291 -0.05636,9.9115 -8.750608,0.067" style="fill:none;stroke:#fff;stroke-width:2.5;stroke-linecap:round;stroke-linejoin:round;stroke-miterlimit:4;stroke-opacity:1;stroke-dasharray:none"/></g></g></g></svg>