<svg xmlns="http://www.w3.org/2000/svg" xmlns:svg="http://www.w3.org/2000/svg" id="svg2" width="55" height="55" version="1.1"><metadata id="metadata23"/><rect id="rect3120" width="55" height="55" x="0" y="0" rx="4.851" ry="4.829" style="fill:#a0a0a0;fill-opacity:1;fill-rule:nonzero;stroke:#a0a0a0;stroke-width:0;stroke-linecap:round;stroke-linejoin:round;stroke-miterlimit:10;stroke-opacity:1;stroke-dasharray:none;stroke-dashoffset:0"/><g id="layer2" style="display:inline"><path id="path3791" d="m 45.925926,24.25926 a 21.296297,21.296297 0 1 1 -42.5925939,0 21.296297,21.296297 0 1 1 42.5925939,0 z" transform="matrix(0.89950544,0,0,0.89950544,5.3455146,7.678664)" style="fill:#fff;fill-opacity:1;stroke:none"/></g><g id="layer1" style="display:inline"><path id="path3897" d="m 27.665302,29.407631 14.817701,0.09176" style="fill:none;stroke:#000;stroke-width:3.5;stroke-linecap:round;stroke-linejoin:round;stroke-miterlimit:4;stroke-opacity:1;stroke-dasharray:none"/></g><g id="layer3" style="display:none"><path id="path4311" d="m 36.539789,13.013087 c 9.161862,4.992537 12.541772,16.466949 7.549234,25.628815 L 27.5,29.602112 z" style="fill:gray;fill-opacity:1;stroke:none"/><path id="path4283" d="M 27.571522,30.159444 39.546676,36.73611" style="fill:none;stroke:#000;stroke-width:3.5;stroke-linecap:round;stroke-linejoin:round;stroke-miterlimit:4;stroke-opacity:1;stroke-dasharray:none"/></g><g id="layer4" style="display:inline"><g id="g4315" style="display:inline"><path id="path3811" d="m 27.5,15.555556 0,3.888889" style="fill:none;stroke:#000;stroke-width:3.5;stroke-linecap:butt;stroke-linejoin:miter;stroke-miterlimit:4;stroke-opacity:1;stroke-dasharray:none"/><path id="path3823" d="m 41.444444,29.5 -3.888889,0" style="fill:none;stroke:#000;stroke-width:3.5;stroke-linecap:butt;stroke-linejoin:miter;stroke-miterlimit:4;stroke-opacity:1;stroke-dasharray:none"/><path id="path3829" d="m 13.555556,29.5 3.888889,0" style="fill:none;stroke:#000;stroke-width:3.5;stroke-linecap:butt;stroke-linejoin:miter;stroke-miterlimit:4;stroke-opacity:1;stroke-dasharray:none"/><path id="path3854" d="m 27.5,43.444444 0,-3.888889" style="fill:none;stroke:#000;stroke-width:3.5;stroke-linecap:butt;stroke-linejoin:miter;stroke-miterlimit:4;stroke-opacity:1;stroke-dasharray:none"/><path id="path4076" d="m 22.873381,5.940543 9.622594,0" style="fill:none;stroke:#000;stroke-width:3.5;stroke-linecap:butt;stroke-linejoin:miter;stroke-miterlimit:4;stroke-opacity:1;stroke-dasharray:none"/><path id="path4080" d="m 38.96491,8.681773 5.209549,3.91786" style="fill:none;stroke:#000;stroke-width:3.5;stroke-linecap:butt;stroke-linejoin:miter;stroke-miterlimit:4;stroke-opacity:1;stroke-dasharray:none"/><path id="path4107" d="m 16.03509,8.681773 -5.209549,3.91786" style="fill:none;stroke:#000;stroke-width:3.5;stroke-linecap:butt;stroke-linejoin:miter;stroke-miterlimit:4;stroke-opacity:1;stroke-dasharray:none"/></g><path id="path4380" d="m 45.925926,24.25926 a 21.296297,21.296297 0 1 1 -42.5925939,0 21.296297,21.296297 0 1 1 42.5925939,0 z" transform="matrix(0.89950544,0,0,0.89950544,5.3455146,7.6786635)" style="fill:none;stroke:#000;stroke-width:3.89102697;stroke-miterlimit:4;stroke-opacity:1;stroke-dasharray:none;display:inline"/></g><g id="g3906" transform="matrix(0,1.036341,-0.91759527,0,55.382638,1.4335988)"><path id="path3132" d="M 15.420073,29.629934 C 15.062375,23.128916 19.85161,18.730516 23.159983,16.583162" style="fill:none;stroke:#000;stroke-width:2.5;stroke-linecap:round;stroke-linejoin:miter;stroke-miterlimit:4;stroke-opacity:1;stroke-dasharray:none"/><path id="path3134" d="m 18.103076,16.964283 5.103526,-0.770344" style="fill:none;stroke:#000;stroke-width:2;stroke-linecap:round;stroke-linejoin:miter;stroke-miterlimit:4;stroke-opacity:1;stroke-dasharray:none"/><path id="path3136" d="M 21.503719,21.743171 23.302895,16.86799" style="fill:none;stroke:#000;stroke-width:2;stroke-linecap:round;stroke-linejoin:miter;stroke-miterlimit:4;stroke-opacity:1;stroke-dasharray:none"/></g></svg>