<svg xmlns="http://www.w3.org/2000/svg" xmlns:svg="http://www.w3.org/2000/svg" id="svg2" width="55" height="55" version="1.1"><metadata id="metadata23"/><g id="layer2" style="display:inline"><path id="path3791" d="m 45.925926,24.25926 a 21.296297,21.296297 0 1 1 -42.5925939,0 21.296297,21.296297 0 1 1 42.5925939,0 z" transform="matrix(0.89950544,0,0,0.89950544,5.3455146,7.678664)" style="fill:#fff;fill-opacity:1;stroke:none"/></g><g id="layer1" transform="translate(-30.762712,4.4279661)" style="fill:#000;fill-opacity:1;display:inline"><path id="path3897" d="M 58.703608,24.969597 58.567349,10.531752 c 0,0 3.387006,0.405121 7.254493,2.638703 3.867487,2.233582 5.338359,5.518077 5.338359,5.518077 z" style="fill:#000;fill-opacity:1;stroke:#000;stroke-width:3.5;stroke-linecap:round;stroke-linejoin:round;stroke-miterlimit:4;stroke-opacity:1;stroke-dasharray:none"/></g><g id="layer3" style="display:none"><path id="path4311" d="m 36.539789,13.013087 c 9.161862,4.992537 12.541772,16.466949 7.549234,25.628815 L 27.5,29.602112 z" style="fill:gray;fill-opacity:1;stroke:none"/><path id="path4283" d="M 27.571522,30.159444 39.546676,36.73611" style="fill:none;stroke:#000;stroke-width:3.5;stroke-linecap:round;stroke-linejoin:round;stroke-miterlimit:4;stroke-opacity:1;stroke-dasharray:none"/></g><path id="path3823" d="m 41.444444,29.5 -3.888889,0" style="fill:none;stroke:#000;stroke-width:3.5;stroke-linecap:butt;stroke-linejoin:miter;stroke-miterlimit:4;stroke-opacity:1;stroke-dasharray:none"/><path id="path3829" d="m 13.555556,29.5 3.888889,0" style="fill:none;stroke:#000;stroke-width:3.5;stroke-linecap:butt;stroke-linejoin:miter;stroke-miterlimit:4;stroke-opacity:1;stroke-dasharray:none"/><path id="path3854" d="m 27.5,43.444444 0,-3.888889" style="fill:none;stroke:#000;stroke-width:3.5;stroke-linecap:butt;stroke-linejoin:miter;stroke-miterlimit:4;stroke-opacity:1;stroke-dasharray:none"/><path id="path4076" d="m 22.873381,5.940543 9.622594,0" style="fill:none;stroke:#000;stroke-width:3.5;stroke-linecap:butt;stroke-linejoin:miter;stroke-miterlimit:4;stroke-opacity:1;stroke-dasharray:none"/><path id="path4080" d="m 38.96491,8.681773 5.209549,3.91786" style="fill:none;stroke:#000;stroke-width:3.5;stroke-linecap:butt;stroke-linejoin:miter;stroke-miterlimit:4;stroke-opacity:1;stroke-dasharray:none"/><path id="path4107" d="m 16.03509,8.681773 -5.209549,3.91786" style="fill:none;stroke:#000;stroke-width:3.5;stroke-linecap:butt;stroke-linejoin:miter;stroke-miterlimit:4;stroke-opacity:1;stroke-dasharray:none"/><path id="path4380" d="m 46.656135,29.5 a 19.156135,19.156135 0 1 1 -38.31227,0 19.156135,19.156135 0 1 1 38.31227,0 z" style="fill:none;stroke:#000;stroke-width:3.5;stroke-miterlimit:4;stroke-opacity:1;stroke-dasharray:none;display:inline"/><text id="text4031" x="28.665" y="25.403" xml:space="preserve" style="font-size:40px;font-style:normal;font-weight:400;line-height:125%;letter-spacing:0;word-spacing:0;fill:#000;fill-opacity:1;stroke:none;font-family:Sans"><tspan id="tspan4033" x="28.665" y="25.403" style="font-size:12px;fill:#fff;fill-opacity:1">2</tspan></text></svg>