<svg xmlns="http://www.w3.org/2000/svg" xmlns:svg="http://www.w3.org/2000/svg" id="svg2" width="55" height="55" version="1.1"><metadata id="metadata23"/><rect id="rect3120" width="55" height="55" x="0" y="0" rx="4.851" ry="4.829" style="fill:#a0a0a0;fill-opacity:1;fill-rule:nonzero;stroke:#a0a0a0;stroke-width:0;stroke-linecap:round;stroke-linejoin:round;stroke-miterlimit:10;stroke-opacity:1;stroke-dasharray:none;stroke-dashoffset:0"/><g id="layer2" style="display:inline"><path id="path3791" d="m 45.925926,24.25926 a 21.296297,21.296297 0 1 1 -42.5925939,0 21.296297,21.296297 0 1 1 42.5925939,0 z" transform="matrix(0.89950544,0,0,0.89950544,5.3455146,7.678664)" style="fill:#fff;fill-opacity:1;stroke:none"/></g><g id="layer1" style="display:inline"><path id="path3897" d="m 27.611054,29.619307 0.09844,13.329723" style="fill:none;stroke:#000;stroke-width:3.5;stroke-linecap:round;stroke-linejoin:round;stroke-miterlimit:4;stroke-opacity:1;stroke-dasharray:none"/></g><g id="layer3" style="display:none"><path id="path4311" d="m 36.539789,13.013087 c 9.161862,4.992537 12.541772,16.466949 7.549234,25.628815 L 27.5,29.602112 z" style="fill:gray;fill-opacity:1;stroke:none"/><path id="path4283" d="M 27.571522,30.159444 39.546676,36.73611" style="fill:none;stroke:#000;stroke-width:3.5;stroke-linecap:round;stroke-linejoin:round;stroke-miterlimit:4;stroke-opacity:1;stroke-dasharray:none"/></g><path id="path3811" d="m 27.5,15.555556 0,3.888889" style="fill:none;stroke:#000;stroke-width:3.5;stroke-linecap:butt;stroke-linejoin:miter;stroke-miterlimit:4;stroke-opacity:1;stroke-dasharray:none"/><path id="path3829" d="m 13.555556,29.5 3.888889,0" style="fill:none;stroke:#000;stroke-width:3.5;stroke-linecap:butt;stroke-linejoin:miter;stroke-miterlimit:4;stroke-opacity:1;stroke-dasharray:none"/><path id="path4076" d="m 22.873381,5.940543 9.622594,0" style="fill:none;stroke:#000;stroke-width:3.5;stroke-linecap:butt;stroke-linejoin:miter;stroke-miterlimit:4;stroke-opacity:1;stroke-dasharray:none"/><path id="path4080" d="m 38.96491,8.681773 5.209549,3.91786" style="fill:none;stroke:#000;stroke-width:3.5;stroke-linecap:butt;stroke-linejoin:miter;stroke-miterlimit:4;stroke-opacity:1;stroke-dasharray:none"/><path id="path4107" d="m 16.03509,8.681773 -5.209549,3.91786" style="fill:none;stroke:#000;stroke-width:3.5;stroke-linecap:butt;stroke-linejoin:miter;stroke-miterlimit:4;stroke-opacity:1;stroke-dasharray:none"/><path id="path4380" d="m 46.656135,29.5 a 19.156135,19.156135 0 1 1 -38.31227,0 19.156135,19.156135 0 1 1 38.31227,0 z" style="fill:none;stroke:#000;stroke-width:3.5;stroke-miterlimit:4;stroke-opacity:1;stroke-dasharray:none;display:inline"/><path id="path3132" d="m 31.530578,17.738665 c 10.235014,2.22597 10.531011,16.529409 3.045249,21.280106" style="fill:none;stroke:#000;stroke-width:2.43790579;stroke-linecap:round;stroke-linejoin:miter;stroke-miterlimit:4;stroke-opacity:1;stroke-dasharray:none"/><g id="g3960" transform="matrix(-0.92861996,-0.37103232,0.37103232,-0.92861996,9.5683601,66.438606)"><path id="path3134" d="m -16.722792,35.257414 4.198286,-3.293553" style="fill:none;stroke:#000;stroke-width:1.95032465;stroke-linecap:round;stroke-linejoin:miter;stroke-miterlimit:4;stroke-opacity:1;stroke-dasharray:none"/><path id="path3136" d="m -11.460555,37.246887 -0.664036,-4.800764" style="fill:none;stroke:#000;stroke-width:1.95032465;stroke-linecap:round;stroke-linejoin:miter;stroke-miterlimit:4;stroke-opacity:1;stroke-dasharray:none"/></g></svg>